<svg width="891" height="300" viewBox="0 0 891 300" fill="none" xmlns="http://www.w3.org/2000/svg">
<path fill-rule="evenodd" clip-rule="evenodd" d="M343 157H335V149H327V141H319V133H311V109H303V101H295V149H303V157H311V197H351V141H343V157ZM327 169V177H335V169H327Z" fill="white"/>
<path d="M279 101H287V93H279V101Z" fill="white"/>
<path d="M295 93V85H287V93H295Z" fill="white"/>
<path d="M303 93V85H295V93H303Z" fill="white"/>
<path d="M303 101H311V93H303V101Z" fill="white"/>
<path fill-rule="evenodd" clip-rule="evenodd" d="M295 149V101H287V109H279V133H271V141H263V149H255V157H247V141H239V197H279V157H287V149H295ZM263 169V177H255V169H263Z" fill="white"/>
<path d="M608.824 198.608C593.283 198.608 581.6 184.674 581.6 167.203C581.6 149.625 593.283 135.692 608.824 135.692C617.935 135.692 625.759 140.193 629.082 146.517H629.618V120.472H648.053V197H630.154V188.425H629.618C624.151 196.357 616.863 198.608 608.824 198.608ZM614.183 181.458C622.544 181.458 627.474 175.563 627.474 167.203C627.474 158.736 622.544 152.841 614.183 152.841C605.716 152.841 601.214 158.736 601.214 167.203C601.214 175.563 605.716 181.458 614.183 181.458Z" fill="white"/>
<path d="M572.508 197H554.287V120.472H572.508V197Z" fill="white"/>
<path d="M531.478 130.011C525.797 130.011 521.189 125.402 521.189 119.721C521.189 114.148 525.797 109.539 531.478 109.539C537.052 109.539 541.66 114.148 541.66 119.721C541.66 125.402 537.052 130.011 531.478 130.011ZM540.589 196.785H522.153V137.299H540.589V196.785Z" fill="white"/>
<path d="M483.692 198.608C468.257 198.608 457.432 187.782 457.432 173.42V137.299H475.76V174.599C475.76 178.993 478.547 181.458 483.692 181.458C489.372 181.458 491.516 178.457 491.516 174.599V137.299H509.951V173.42C509.951 187.782 499.233 198.608 483.692 198.608Z" fill="white"/>
<path d="M414.551 198.608C392.472 198.608 374.787 180.708 374.787 158.736C374.787 136.549 392.472 118.864 414.551 118.864C425.484 118.864 437.596 122.937 444.027 130.976L433.094 142.98C428.271 138.157 423.662 135.692 414.551 135.692C402.761 135.692 393.115 145.445 393.115 158.736C393.115 171.812 402.761 181.673 414.551 181.673C421.304 181.673 425.377 180.494 429.664 176.528V167.846H414.551V150.697H447.778V180.922C444.348 186.389 433.201 198.608 414.551 198.608Z" fill="white"/>
</svg>
