<svg version="1.1" xmlns="http://www.w3.org/2000/svg" xmlns:xlink="http://www.w3.org/1999/xlink" width="700" height="700" viewBox="570.5,119.5,700,700"><defs><linearGradient x1="676.54985" y1="468.15743" x2="1175.48072" y2="468.15743" gradientUnits="userSpaceOnUse" id="color-1"><stop offset="0" stop-color="#8123ae"/><stop offset="0.29891" stop-color="#6472e0"/><stop offset="0.47525" stop-color="#53a0fd"/><stop offset="1" stop-color="#51ecc4"/></linearGradient></defs><g id="document" fill="transparent" fill-rule="nonzero" stroke="#000000" stroke-width="0" stroke-linecap="butt" stroke-linejoin="miter" stroke-miterlimit="10" stroke-dasharray="" stroke-dashoffset="0" font-family="none" font-weight="none" font-size="none" text-anchor="none" style="mix-blend-mode: normal"><rect x="570.5" y="85.35714" transform="scale(1,1.4)" width="700" height="500" id="Shape 1 1" vector-effect="non-scaling-stroke"/></g><g fill="url(#color-1)" fill-rule="evenodd" stroke="none" stroke-width="1" stroke-linecap="butt" stroke-linejoin="miter" stroke-miterlimit="10" stroke-dasharray="" stroke-dashoffset="0" font-family="none" font-weight="none" font-size="none" text-anchor="none" style="mix-blend-mode: normal"><g><g id="stage"><g id="layer1 1"><path d="M930.37794,128c-140.91817,0.01574 -255.14656,114.25689 -255.14656,255.17506v10.34146c7.35014,185.40574 201.04614,418.21701 201.04614,418.21701v-307.53765c-46.66481,-21.2812 -78.5154,-67.49019 -78.5154,-121.16329c0.01897,-67.74461 51.04218,-124.60861 118.3888,-131.94114c67.34662,-7.33253 129.41166,37.21871 144.00908,103.37193c14.59742,66.15322 -22.95567,132.68627 -87.13417,154.37619l-0.94014,0.28489v126.12034c122.3883,-20.31259 214.54989,-125.37963 214.54989,-251.9843c0,-67.69175 -26.89044,-132.611 -74.75573,-180.4763c-47.8653,-47.8653 -112.78455,-74.75573 -180.4763,-74.75573h-1.08258h0.05698z" id="Path 1"/></g></g></g></g></svg>